<?xml version="1.0" encoding="UTF-8"?>
<svg data-name="Layer 1" xmlns="http://www.w3.org/2000/svg" viewBox="0 0 1088 399.03" fill="white">
  <path class="cls-2" d="M693.59,224.4c8.01-19.2,12.44-40.26,12.44-62.37C706.03,72.46,633.51-.04,543.93,0c-89.46.04-161.96,72.56-161.96,162.03,0,22.1,4.42,43.18,12.45,62.38,3.3,7.91-2.5,16.62-11.06,16.62H48c-26.51,0-48,21.49-48,48v62c0,26.51,21.49,48,48,48h992c26.51,0,48-21.49,48-48v-62c0-26.51-21.49-48-48-48h-335.35c-8.57,0-14.36-8.72-11.06-16.63ZM453.53,197.14c1.12-1.49,3.24-1.8,4.73-.68,2.45,1.84,4.07,2.4,4.99,2.5.75.08,1.1-.12,1.41-.43.44-.43.89-1.23,1.23-2.45.33-1.18.47-2.51.47-3.67v-30.38c0-1.86,1.51-3.38,3.38-3.38s3.37,1.52,3.37,3.38v30.38c0,2.39,1.24,4.65,2.72,5.63.67.45,1.33.6,2,.52.69-.1,1.73-.49,3.02-1.78s3.46-1.32,4.77,0c1.32,1.31,1.32,3.45,0,4.77-2.08,2.08-4.42,3.37-6.89,3.7-2.5.34-4.79-.35-6.65-1.59-.48-.33-.94-.69-1.37-1.09-.19-.17-.49-.15-.66.05-.2.25-.41.49-.64.72-1.72,1.69-4.06,2.63-6.86,2.34-2.62-.28-5.4-1.61-8.34-3.81-1.49-1.12-1.8-3.24-.68-4.73ZM443.38,131.1c-2.97-7.49,12.47-25.41,17.07-18.48,5.07,7.62-13.27,25-17.07,18.48ZM477.61,114.24c5.63-9.6,22.31,17.41,18.29,18.49-5.43,1.45-20.23-11.52-18.29-18.49ZM547.99,107.74c3.52-.98,7.4-1.66,13.42-1.84,3.39-.1,7.32.11,11.07.84,3.72.71,7.46,1.97,10.33,4.09,1.39,1.04,2.47,2.47,2.54,4.28.07,1.77-.85,3.19-1.86,4.17-1.98,1.92-5.28,3.14-8.58,3.46-3.36.32-7.25-.24-10.41-2.5-2.73-1.95-4.66-4.99-5.31-9.17-4.3.25-7.21.82-9.85,1.55-1.35.37-2.74-.42-3.12-1.76-.37-1.35.42-2.75,1.77-3.12ZM402.22,162.03c0-78.46,63.74-142.04,142.27-141.78,75.57.26,138.12,60.53,141.17,136.04.3,7.4.01,14.65-.78,21.76-1.44,12.85-17.82,12.62-23.26.89-5.57-12.03-12.43-23.22-20.76-31.8-4.51-4.64-5.19-12.61-1.36-17.83.39-.53.78-1.06,1.18-1.6,9.12-12.38,20.09-27.26,9.4-37.95-11.77-11.77-26.23-1.09-37.47,7.22-1.56,1.16-3.07,2.27-4.5,3.27,0,0-59.45-15.16-101.41-15.16-37.31,0-73.44,8.16-73.44,63.53,0,36.72,0,61.2,40.8,73.44.1.05.2.09.3.14,9.62,4.37,6.39,18.83-4.18,18.83h-37.34c-4.21,0-8.11-2.21-10.29-5.82-12.91-21.36-20.33-46.4-20.33-73.18ZM62.83,375.27c-23.76,0-39.17-12.81-39.17-32.83h23.18c0,7.78,5.76,12.1,16.13,12.1s17.14-4.18,17.14-10.95c0-5.9-2.74-8.93-9.79-10.37l-16.28-3.31c-19-3.88-28.79-14.68-28.79-32.11,0-19.29,16.27-32.97,39.16-32.97s37.3,12.67,37.3,32.83h-23.19c0-7.49-5.61-12.1-14.4-12.1-9.5,0-15.55,4.32-15.55,11.38,0,6.48,3.31,9.64,10.8,11.23l15.99,3.31c19,3.89,28.08,12.96,28.08,29.81,0,20.59-16.13,33.98-40.61,33.98ZM142.17,373.4h-23.33v-106.56h23.33v106.56ZM273.35,373.4h-22.6v-22.32c0-23.04,0-28.08,1.15-36l-22.61,58.32h-21.31l-22.47-58.32c1.3,7.92,1.45,16.85,1.45,28.51v29.81h-22.61v-106.56h22.61l31.67,79.49,31.83-79.49h22.89v106.56ZM338.73,337.98h-19.87v35.42h-23.33v-106.56h43.2c21.74,0,36.29,14.26,36.29,35.57s-14.55,35.57-36.29,35.57ZM455.08,373.4h-65.37v-106.56h23.32v84.96h42.05v21.6ZM514.25,321.34l-6.32,11.6v40.46h-23.33v-40.46l-14.54-26.7-21.39-39.27-.07-.13h26.07l13.11,25.38,4.74,9.18c1.73,3.31,2.88,5.91,4.03,8.64,1.3-2.59,2.45-5.33,4.18-8.78l17.86-34.42h25.34l-29.68,54.5ZM624.28,288.44h-44.49v22.32h37.43v21.02h-37.43v41.62h-23.33v-106.56h67.82v21.6ZM707.94,288.44h-44.35v20.88h39.31v20.45h-39.31v22.03h44.35v21.6h-67.68v-106.56h67.68v21.6ZM792.47,373.4h-65.37v-106.56h23.32v84.96h42.05v21.6ZM872.54,373.4h-65.38v-106.56h23.33v84.96h42.05v21.6ZM954.18,373.4l-7.49-22.46h-34.41l-7.63,22.46h-24.34l38.02-106.56h22.75l37.87,106.56h-24.77ZM1023.01,375.27c-23.76,0-39.17-12.81-39.17-32.83h23.19c0,7.78,5.76,12.1,16.13,12.1s17.13-4.18,17.13-10.95c0-5.9-2.73-8.93-9.79-10.37l-16.27-3.31c-19.01-3.88-28.8-14.68-28.8-32.11,0-19.29,16.27-32.97,39.17-32.97s37.29,12.67,37.29,32.83h-23.18c0-7.49-5.62-12.1-14.4-12.1-9.51,0-15.55,4.32-15.55,11.38,0,6.48,3.31,9.64,10.8,11.23l15.98,3.31c19.01,3.89,28.08,12.96,28.08,29.81,0,20.59-16.13,33.98-40.61,33.98Z"/>
  <path class="cls-1" d="M333.55,287.58h-14.69v29.66h14.69c11.23,0,16.84-4.89,16.84-14.83s-5.61-14.83-16.84-14.83ZM333.55,287.58h-14.69v29.66h14.69c11.23,0,16.84-4.89,16.84-14.83s-5.61-14.83-16.84-14.83ZM333.55,287.58h-14.69v29.66h14.69c11.23,0,16.84-4.89,16.84-14.83s-5.61-14.83-16.84-14.83ZM333.55,287.58h-14.69v29.66h14.69c11.23,0,16.84-4.89,16.84-14.83s-5.61-14.83-16.84-14.83ZM333.55,287.58h-14.69v29.66h14.69c11.23,0,16.84-4.89,16.84-14.83s-5.61-14.83-16.84-14.83ZM333.55,287.58h-14.69v29.66h14.69c11.23,0,16.84-4.89,16.84-14.83s-5.61-14.83-16.84-14.83ZM333.55,287.58h-14.69v29.66h14.69c11.23,0,16.84-4.89,16.84-14.83s-5.61-14.83-16.84-14.83ZM333.55,287.58h-14.69v29.66h14.69c11.23,0,16.84-4.89,16.84-14.83s-5.61-14.83-16.84-14.83ZM333.55,287.58h-14.69v29.66h14.69c11.23,0,16.84-4.89,16.84-14.83s-5.61-14.83-16.84-14.83ZM932.44,308.6c-1.15-3.6-2.45-7.78-2.88-10.37-.43,2.45-1.59,6.48-2.88,10.37l-7.63,22.75h21.02l-7.63-22.75ZM932.44,308.6c-1.15-3.6-2.45-7.78-2.88-10.37-.43,2.45-1.59,6.48-2.88,10.37l-7.63,22.75h21.02l-7.63-22.75ZM333.55,287.58h-14.69v29.66h14.69c11.23,0,16.84-4.89,16.84-14.83s-5.61-14.83-16.84-14.83ZM932.44,308.6c-1.15-3.6-2.45-7.78-2.88-10.37-.43,2.45-1.59,6.48-2.88,10.37l-7.63,22.75h21.02l-7.63-22.75ZM333.55,287.58h-14.69v29.66h14.69c11.23,0,16.84-4.89,16.84-14.83s-5.61-14.83-16.84-14.83ZM333.55,287.58h-14.69v29.66h14.69c11.23,0,16.84-4.89,16.84-14.83s-5.61-14.83-16.84-14.83ZM932.44,308.6c-1.15-3.6-2.45-7.78-2.88-10.37-.43,2.45-1.59,6.48-2.88,10.37l-7.63,22.75h21.02l-7.63-22.75ZM932.44,308.6c-1.15-3.6-2.45-7.78-2.88-10.37-.43,2.45-1.59,6.48-2.88,10.37l-7.63,22.75h21.02l-7.63-22.75ZM333.55,287.58h-14.69v29.66h14.69c11.23,0,16.84-4.89,16.84-14.83s-5.61-14.83-16.84-14.83ZM333.55,287.58h-14.69v29.66h14.69c11.23,0,16.84-4.89,16.84-14.83s-5.61-14.83-16.84-14.83ZM333.55,287.58h-14.69v29.66h14.69c11.23,0,16.84-4.89,16.84-14.83s-5.61-14.83-16.84-14.83ZM333.55,287.58h-14.69v29.66h14.69c11.23,0,16.84-4.89,16.84-14.83s-5.61-14.83-16.84-14.83ZM333.55,287.58h-14.69v29.66h14.69c11.23,0,16.84-4.89,16.84-14.83s-5.61-14.83-16.84-14.83ZM333.55,287.58h-14.69v29.66h14.69c11.23,0,16.84-4.89,16.84-14.83s-5.61-14.83-16.84-14.83ZM333.55,287.58h-14.69v29.66h14.69c11.23,0,16.84-4.89,16.84-14.83s-5.61-14.83-16.84-14.83Z"/>
</svg>
